<svg xmlns="http://www.w3.org/2000/svg" viewBox="0 0 64 64" style="enable-background:new 0 0 64 64" xml:space="preserve"><path style="fill:#605491" d="m57.931 54.658-2.216-1.289c3.743-6.432 5.721-13.821 5.721-21.368s-1.979-14.936-5.721-21.368l2.216-1.289C61.901 16.166 64 24.001 64 32c0 7.999-2.099 15.834-6.069 22.658zm-51.862 0C2.099 47.833 0 39.998 0 32S2.099 16.167 6.069 9.342l2.216 1.289C4.542 17.065 2.564 24.454 2.564 32s1.979 14.935 5.721 21.368l-2.216 1.29zm45.32-4.895-2.215-1.292c2.897-4.963 4.428-10.659 4.428-16.471 0-5.8-1.525-11.497-4.41-16.474l2.218-1.286a35.446 35.446 0 0 1 4.755 17.759c.001 6.266-1.651 12.409-4.776 17.764zm-38.778 0C9.486 44.408 7.834 38.265 7.834 32a35.431 35.431 0 0 1 4.756-17.759l2.218 1.286a32.866 32.866 0 0 0-4.41 16.474c0 5.812 1.531 11.508 4.428 16.471l-2.215 1.291zm32.278-4.9-2.218-1.284A23.127 23.127 0 0 0 45.769 32c0-4.076-1.071-8.079-3.098-11.578l2.218-1.284A25.681 25.681 0 0 1 48.332 32a25.68 25.68 0 0 1-3.443 12.863zm-25.778 0A25.69 25.69 0 0 1 15.668 32c0-4.526 1.191-8.973 3.443-12.862l2.218 1.284A23.12 23.12 0 0 0 18.231 32c0 4.075 1.071 8.079 3.098 11.579l-2.218 1.284zm12.615-4.312c-4.716 0-8.553-3.837-8.553-8.553s3.837-8.552 8.553-8.552 8.552 3.836 8.552 8.552-3.836 8.553-8.552 8.553zm0-14.541a5.996 5.996 0 0 0-5.989 5.988 5.996 5.996 0 0 0 5.989 5.989 5.995 5.995 0 0 0 5.988-5.989 5.995 5.995 0 0 0-5.988-5.988z"/><circle style="fill:#d4c3f7" cx="31.728" cy="31.997" r="5.987"/></svg>